<svg width="6" height="8" viewBox="0 0 6 8" fill="none" xmlns="http://www.w3.org/2000/svg">
<path d="M5.98163 3.85305C5.96633 3.68576 5.83469 3.5611 5.67857 3.5611H3.36734C3.19898 3.5611 3.06122 3.70872 3.06122 3.88914V4.45008C3.06122 4.6305 3.19898 4.77811 3.36734 4.77811H4.74796C4.71428 5.0799 4.53061 5.53587 4.12347 5.84094C3.86326 6.03448 3.51734 6.16898 3.06122 6.16898C3.03979 6.16898 3.02143 6.16898 3 6.1657C2.21939 6.13946 1.55817 5.57852 1.31939 4.80763C1.2551 4.60097 1.21837 4.38447 1.21837 4.15813C1.21837 3.93178 1.2551 3.712 1.31633 3.50862C1.3347 3.44957 1.35612 3.39053 1.38061 3.33148C1.66225 2.65245 2.27755 2.17351 3 2.15055C3.01836 2.14727 3.03979 2.14727 3.06122 2.14727C3.49898 2.14727 3.82653 2.30145 4.05612 2.47202C4.17551 2.56059 4.33469 2.54091 4.43877 2.43266L4.86428 1.98653C4.99898 1.84548 4.98673 1.60601 4.83367 1.48792C4.34694 1.10412 3.75306 0.877777 3.06122 0.877777C3.03979 0.877777 3.02143 0.87778 3 0.881061C1.82755 0.904023 0.820409 1.63226 0.327551 2.68525C0.119388 3.13138 0 3.62999 0 4.15813C0 4.68626 0.119388 5.18487 0.327551 5.631H0.330613C0.82347 6.68399 1.83061 7.41223 3 7.43519C3.02143 7.43847 3.03979 7.43847 3.06122 7.43847C3.88775 7.43847 4.58265 7.14652 5.08775 6.64463C5.66633 6.07057 6 5.2308 6 4.23029C6 4.08924 5.99388 3.96786 5.98163 3.85305Z" fill="#969696"/>
</svg>
