<svg width="10" height="10" viewBox="0 0 10 10" fill="none" xmlns="http://www.w3.org/2000/svg">
<path d="M0 0.940475H10V9.37566H0V0.940475Z" fill="white" fill-opacity="0.01"/>
<path d="M1.0415 7.22507C1.44335 7.41248 4.35221 8.8269 6.42065 7.73677C8.48907 6.64665 8.37496 4.76852 8.37496 3.9079C8.56234 3.57679 8.95817 3.40845 8.95817 2.5122C8.56936 2.81516 8.1829 2.91825 7.7988 2.82145C7.42248 2.33748 6.90473 2.12342 6.24555 2.17928C5.25677 2.26307 4.89503 3.08134 5.00148 4.13999C3.4769 4.79033 2.2814 3.66856 1.66529 2.82145C1.45944 3.48859 1.26094 4.28953 1.66529 5.17555C1.93486 5.76623 2.58286 6.26561 3.6093 6.67369C2.56907 7.14926 1.71313 7.33304 1.0415 7.22507Z" fill="#969696" stroke="#969696" stroke-width="0.891726" stroke-linejoin="round"/>
</svg>
